{
  "asset": {
    "version": "2.0",
    "generator": "Custom GLTF Generator"
  },
  "scene": 0,
  "scenes": [
    {
      "nodes": [0, 1]
    }
  ],
  "nodes": [
    {
      "name": "Vase",
      "mesh": 0,
      "translation": [0, 0, 0],
      "rotation": [0, 0, 0, 1],
      "scale": [1, 1, 1]
    },
    {
      "name": "Butterfly",
      "mesh": 1,
      "translation": [0.5, 1, 0.5],
      "rotation": [0, 0.707, 0, 0.707],
      "scale": [0.2, 0.2, 0.2]
    }
  ],
  "meshes": [
    {
      "primitives": [
        {
          "attributes": {
            "POSITION": 0,
            "NORMAL": 1,
            "TEXCOORD_0": 2
          },
          "indices": 3,
          "material": 0
        }
      ]
    },
    {
      "primitives": [
        {
          "attributes": {
            "POSITION": 4,
            "NORMAL": 5,
            "TEXCOORD_0": 6
          },
          "indices": 7,
          "material": 1
        }
      ]
    }
  ],
  "materials": [
    {
      "name": "VaseMaterial",
      "pbrMetallicRoughness": {
        "baseColorFactor": [0.8, 0.4, 0.6, 1.0],
        "metallicFactor": 0.5,
        "roughnessFactor": 0.3
      }
    },
    {
      "name": "ButterflyMaterial",
      "pbrMetallicRoughness": {
        "baseColorFactor": [1.0, 0.8, 0.9, 1.0],
        "metallicFactor": 0.0,
        "roughnessFactor": 0.5
      },
      "emissiveFactor": [0.5, 0.3, 0.4]
    }
  ],
  "animations": [
    {
      "name": "ButterflyFlight",
      "channels": [
        {
          "sampler": 0,
          "target": {
            "node": 1,
            "path": "translation"
          }
        },
        {
          "sampler": 1,
          "target": {
            "node": 1,
            "path": "rotation"
          }
        }
      ],
      "samplers": [
        {
          "input": 8,
          "interpolation": "LINEAR",
          "output": 9
        },
        {
          "input": 8,
          "interpolation": "LINEAR",
          "output": 10
        }
      ]
    }
  ],
  "accessors": [
    {
      "bufferView": 0,
      "componentType": 5126,
      "count": 24,
      "type": "VEC3",
      "max": [1, 2, 1],
      "min": [-1, 0, -1]
    },
    {
      "bufferView": 1,
      "componentType": 5126,
      "count": 24,
      "type": "VEC3"
    },
    {
      "bufferView": 2,
      "componentType": 5126,
      "count": 24,
      "type": "VEC2"
    },
    {
      "bufferView": 3,
      "componentType": 5123,
      "count": 36,
      "type": "SCALAR"
    },
    {
      "bufferView": 4,
      "componentType": 5126,
      "count": 16,
      "type": "VEC3",
      "max": [0.5, 0.5, 0.1],
      "min": [-0.5, -0.5, -0.1]
    },
    {
      "bufferView": 5,
      "componentType": 5126,
      "count": 16,
      "type": "VEC3"
    },
    {
      "bufferView": 6,
      "componentType": 5126,
      "count": 16,
      "type": "VEC2"
    },
    {
      "bufferView": 7,
      "componentType": 5123,
      "count": 24,
      "type": "SCALAR"
    },
    {
      "bufferView": 8,
      "componentType": 5126,
      "count": 60,
      "type": "SCALAR",
      "max": [2.0],
      "min": [0.0]
    },
    {
      "bufferView": 9,
      "componentType": 5126,
      "count": 60,
      "type": "VEC3"
    },
    {
      "bufferView": 10,
      "componentType": 5126,
      "count": 60,
      "type": "VEC4"
    }
  ],
  "bufferViews": [
    {
      "buffer": 0,
      "byteOffset": 0,
      "byteLength": 288
    },
    {
      "buffer": 0,
      "byteOffset": 288,
      "byteLength": 288
    },
    {
      "buffer": 0,
      "byteOffset": 576,
      "byteLength": 192
    },
    {
      "buffer": 0,
      "byteOffset": 768,
      "byteLength": 72
    },
    {
      "buffer": 0,
      "byteOffset": 840,
      "byteLength": 192
    },
    {
      "buffer": 0,
      "byteOffset": 1032,
      "byteLength": 192
    },
    {
      "buffer": 0,
      "byteOffset": 1224,
      "byteLength": 128
    },
    {
      "buffer": 0,
      "byteOffset": 1352,
      "byteLength": 48
    },
    {
      "buffer": 0,
      "byteOffset": 1400,
      "byteLength": 240
    },
    {
      "buffer": 0,
      "byteOffset": 1640,
      "byteLength": 720
    },
    {
      "buffer": 0,
      "byteOffset": 2360,
      "byteLength": 960
    }
  ],
  "buffers": [
    {
      "byteLength": 3320,
      "uri": "data:application/octet-stream;base64,..."
    }
  ]
} 